<svg width="56" height="56" viewBox="0 0 56 56" fill="none" xmlns="http://www.w3.org/2000/svg">
<g id="Group 10">
<ellipse id="Ellipse 3" cx="28" cy="28.0036" rx="28" ry="27.9957" fill="#FAF1D6"/>
<g id="pending_actions">
<mask id="mask0_635_19376" style="mask-type:alpha" maskUnits="userSpaceOnUse" x="14" y="14" width="28" height="29">
<rect id="Bounding box" x="14" y="14.0059" width="28" height="27.9957" fill="#D9D9D9"/>
</mask>
<g mask="url(#mask0_635_19376)">
<path id="pending_actions_2" d="M33.8333 39.6682C32.2194 39.6682 30.8438 39.0995 29.7063 37.9622C28.5688 36.8248 28 35.4494 28 33.8357C28 32.2221 28.5688 30.8466 29.7063 29.7093C30.8438 28.5719 32.2194 28.0033 33.8333 28.0033C35.4472 28.0033 36.8229 28.5719 37.9604 29.7093C39.0979 30.8466 39.6667 32.2221 39.6667 33.8357C39.6667 35.4494 39.0979 36.8248 37.9604 37.9622C36.8229 39.0995 35.4472 39.6682 33.8333 39.6682ZM35.7875 36.6061L36.6042 35.7896L34.4167 33.6024V30.3362H33.25V34.069L35.7875 36.6061ZM19.8333 38.5017C19.1917 38.5017 18.6424 38.2732 18.1854 37.8164C17.7285 37.3595 17.5 36.8103 17.5 36.1687V19.8378C17.5 19.1963 17.7285 18.647 18.1854 18.1902C18.6424 17.7333 19.1917 17.5049 19.8333 17.5049H24.7042C24.9181 16.8244 25.3361 16.2655 25.9583 15.828C26.5806 15.3906 27.2611 15.1719 28 15.1719C28.7778 15.1719 29.4729 15.3906 30.0854 15.828C30.6979 16.2655 31.1111 16.8244 31.325 17.5049H36.1667C36.8083 17.5049 37.3576 17.7333 37.8146 18.1902C38.2715 18.647 38.5 19.1963 38.5 19.8378V27.1284C38.15 26.8757 37.7806 26.6618 37.3917 26.4868C37.0028 26.3118 36.5944 26.1563 36.1667 26.0202V19.8378H33.8333V23.3373H22.1667V19.8378H19.8333V36.1687H26.0167C26.1528 36.5964 26.3083 37.0047 26.4833 37.3935C26.6583 37.7823 26.8722 38.1517 27.125 38.5017H19.8333ZM28 19.8378C28.3306 19.8378 28.6076 19.726 28.8313 19.5025C29.0549 19.2789 29.1667 19.0018 29.1667 18.6713C29.1667 18.3408 29.0549 18.0638 28.8313 17.8402C28.6076 17.6166 28.3306 17.5049 28 17.5049C27.6694 17.5049 27.3924 17.6166 27.1687 17.8402C26.9451 18.0638 26.8333 18.3408 26.8333 18.6713C26.8333 19.0018 26.9451 19.2789 27.1687 19.5025C27.3924 19.726 27.6694 19.8378 28 19.8378Z" fill="#FFA412"/>
</g>
</g>
</g>
</svg>
