<svg width="56" height="56" viewBox="0 0 56 56" fill="none" xmlns="http://www.w3.org/2000/svg">
<g id="Group 10">
<ellipse id="Ellipse 3" cx="28" cy="27.9957" rx="28" ry="27.9957" fill="#FFDBC0"/>
<g id="account_balance_wallet">
<mask id="mask0_684_24777" style="mask-type:alpha" maskUnits="userSpaceOnUse" x="14" y="13" width="28" height="29">
<rect id="Bounding box" x="14" y="13.998" width="28" height="27.9957" fill="#D9D9D9"/>
</mask>
<g mask="url(#mask0_684_24777)">
<path id="account_balance_wallet_2" d="M19.8333 38.4949C19.1917 38.4949 18.6424 38.2664 18.1854 37.8095C17.7285 37.3527 17.5 36.8034 17.5 36.1619V19.831C17.5 19.1895 17.7285 18.6402 18.1854 18.1834C18.6424 17.7265 19.1917 17.498 19.8333 17.498H36.1667C36.8083 17.498 37.3576 17.7265 37.8146 18.1834C38.2715 18.6402 38.5 19.1895 38.5 19.831V22.7472H36.1667V19.831H19.8333V36.1619H36.1667V33.2457H38.5V36.1619C38.5 36.8034 38.2715 37.3527 37.8146 37.8095C37.3576 38.2664 36.8083 38.4949 36.1667 38.4949H19.8333ZM29.1667 33.8289C28.525 33.8289 27.9757 33.6005 27.5188 33.1436C27.0618 32.6867 26.8333 32.1375 26.8333 31.4959V24.497C26.8333 23.8554 27.0618 23.3062 27.5188 22.8493C27.9757 22.3924 28.525 22.164 29.1667 22.164H37.3333C37.975 22.164 38.5243 22.3924 38.9812 22.8493C39.4382 23.3062 39.6667 23.8554 39.6667 24.497V31.4959C39.6667 32.1375 39.4382 32.6867 38.9812 33.1436C38.5243 33.6005 37.975 33.8289 37.3333 33.8289H29.1667ZM37.3333 31.4959V24.497H29.1667V31.4959H37.3333ZM32.6667 29.7462C33.1528 29.7462 33.566 29.5761 33.9062 29.2358C34.2465 28.8956 34.4167 28.4825 34.4167 27.9965C34.4167 27.5104 34.2465 27.0973 33.9062 26.7571C33.566 26.4168 33.1528 26.2467 32.6667 26.2467C32.1806 26.2467 31.7674 26.4168 31.4271 26.7571C31.0868 27.0973 30.9167 27.5104 30.9167 27.9965C30.9167 28.4825 31.0868 28.8956 31.4271 29.2358C31.7674 29.5761 32.1806 29.7462 32.6667 29.7462Z" fill="#FF6B00"/>
</g>
</g>
</g>
</svg>
