<svg width="56" height="56" viewBox="0 0 56 56" fill="none" xmlns="http://www.w3.org/2000/svg">
<g id="Group 10">
<circle id="Ellipse 3" cx="28" cy="28" r="28" fill="#FFE9E6"/>
<g id="block">
<mask id="mask0_566_19150" style="mask-type:alpha" maskUnits="userSpaceOnUse" x="14" y="14" width="28" height="29">
<rect id="Bounding box" x="14" y="14.0273" width="28" height="27.9817" fill="#D9D9D9"/>
</mask>
<g mask="url(#mask0_566_19150)">
<path id="block_2" d="M28.0007 39.6775C26.3868 39.6775 24.8701 39.3714 23.4507 38.7593C22.0312 38.1472 20.7965 37.3165 19.7465 36.2672C18.6965 35.2179 17.8652 33.984 17.2527 32.5654C16.6402 31.1469 16.334 29.6313 16.334 28.0184C16.334 26.4056 16.6402 24.8899 17.2527 23.4714C17.8652 22.0529 18.6965 20.819 19.7465 19.7696C20.7965 18.7203 22.0312 17.8896 23.4507 17.2775C24.8701 16.6654 26.3868 16.3594 28.0007 16.3594C29.6145 16.3594 31.1312 16.6654 32.5507 17.2775C33.9701 17.8896 35.2048 18.7203 36.2548 19.7696C37.3048 20.819 38.1361 22.0529 38.7486 23.4714C39.3611 24.8899 39.6673 26.4056 39.6673 28.0184C39.6673 29.6313 39.3611 31.1469 38.7486 32.5654C38.1361 33.984 37.3048 35.2179 36.2548 36.2672C35.2048 37.3165 33.9701 38.1472 32.5507 38.7593C31.1312 39.3714 29.6145 39.6775 28.0007 39.6775ZM28.0007 37.3457C29.0507 37.3457 30.0618 37.1756 31.034 36.8356C32.0062 36.4955 32.9007 36.0049 33.7173 35.3636L20.6507 22.3055C20.009 23.1216 19.518 24.0155 19.1777 24.9871C18.8375 25.9587 18.6673 26.9691 18.6673 28.0184C18.6673 30.6223 19.5715 32.8278 21.3798 34.6349C23.1882 36.4421 25.3951 37.3457 28.0007 37.3457ZM35.3507 33.7313C35.9923 32.9152 36.4833 32.0214 36.8236 31.0498C37.1638 30.0782 37.334 29.0677 37.334 28.0184C37.334 25.4146 36.4298 23.2091 34.6215 21.4019C32.8132 19.5948 30.6062 18.6912 28.0007 18.6912C26.9507 18.6912 25.9395 18.8612 24.9673 19.2013C23.9951 19.5413 23.1007 20.032 22.284 20.6732L35.3507 33.7313Z" fill="#FF6A56"/>
</g>
</g>
</g>
</svg>
