<svg width="56" height="56" viewBox="0 0 56 56" fill="none" xmlns="http://www.w3.org/2000/svg">
<g id="Group 10">
<circle id="Ellipse 3" cx="28" cy="28" r="28" fill="#E3E9FF"/>
<g id="fact_check">
<mask id="mask0_566_19130" style="mask-type:alpha" maskUnits="userSpaceOnUse" x="14" y="14" width="28" height="28">
<rect id="Bounding box" x="14" y="14" width="28" height="28" fill="#D9D9D9"/>
</mask>
<g mask="url(#mask0_566_19130)">
<path id="fact_check_2" d="M18.6673 38.5C18.0257 38.5 17.4763 38.2715 17.0194 37.8146C16.5625 37.3576 16.334 36.8083 16.334 36.1667V19.8333C16.334 19.1917 16.5625 18.6424 17.0194 18.1854C17.4763 17.7285 18.0257 17.5 18.6673 17.5H37.334C37.9757 17.5 38.525 17.7285 38.9819 18.1854C39.4388 18.6424 39.6673 19.1917 39.6673 19.8333V36.1667C39.6673 36.8083 39.4388 37.3576 38.9819 37.8146C38.525 38.2715 37.9757 38.5 37.334 38.5H18.6673ZM18.6673 36.1667H37.334V19.8333H18.6673V36.1667ZM24.5007 33.8333C24.8312 33.8333 25.1083 33.7215 25.3319 33.4979C25.5555 33.2743 25.6673 32.9972 25.6673 32.6667C25.6673 32.3361 25.5555 32.059 25.3319 31.8354C25.1083 31.6118 24.8312 31.5 24.5007 31.5H21.0007C20.6701 31.5 20.393 31.6118 20.1694 31.8354C19.9458 32.059 19.834 32.3361 19.834 32.6667C19.834 32.9972 19.9458 33.2743 20.1694 33.4979C20.393 33.7215 20.6701 33.8333 21.0007 33.8333H24.5007ZM30.9757 28.2042L30.1298 27.3583C29.8965 27.125 29.6243 27.0132 29.3132 27.0229C29.002 27.0326 28.7298 27.1542 28.4965 27.3875C28.2826 27.6208 28.1708 27.8931 28.1611 28.2042C28.1513 28.5153 28.2632 28.7875 28.4965 29.0208L30.159 30.6833C30.3923 30.9167 30.6645 31.0333 30.9757 31.0333C31.2868 31.0333 31.559 30.9167 31.7923 30.6833L35.934 26.5417C36.1673 26.3083 36.284 26.0361 36.284 25.725C36.284 25.4139 36.1673 25.1417 35.934 24.9083C35.7007 24.675 35.4236 24.5583 35.1027 24.5583C34.7819 24.5583 34.5048 24.675 34.2715 24.9083L30.9757 28.2042ZM24.5007 29.1667C24.8312 29.1667 25.1083 29.0549 25.3319 28.8312C25.5555 28.6076 25.6673 28.3306 25.6673 28C25.6673 27.6694 25.5555 27.3924 25.3319 27.1687C25.1083 26.9451 24.8312 26.8333 24.5007 26.8333H21.0007C20.6701 26.8333 20.393 26.9451 20.1694 27.1687C19.9458 27.3924 19.834 27.6694 19.834 28C19.834 28.3306 19.9458 28.6076 20.1694 28.8312C20.393 29.0549 20.6701 29.1667 21.0007 29.1667H24.5007ZM24.5007 24.5C24.8312 24.5 25.1083 24.3882 25.3319 24.1646C25.5555 23.941 25.6673 23.6639 25.6673 23.3333C25.6673 23.0028 25.5555 22.7257 25.3319 22.5021C25.1083 22.2785 24.8312 22.1667 24.5007 22.1667H21.0007C20.6701 22.1667 20.393 22.2785 20.1694 22.5021C19.9458 22.7257 19.834 23.0028 19.834 23.3333C19.834 23.6639 19.9458 23.941 20.1694 24.1646C20.393 24.3882 20.6701 24.5 21.0007 24.5H24.5007Z" fill="#436CFF"/>
</g>
</g>
</g>
</svg>
