<svg width="56" height="56" viewBox="0 0 56 56" fill="none" xmlns="http://www.w3.org/2000/svg">
<g id="Group 10">
<circle id="Ellipse 3" opacity="0.75" cx="28" cy="28" r="28" fill="#C8F1C5"/>
<g id="order_approve">
<mask id="mask0_566_19140" style="mask-type:alpha" maskUnits="userSpaceOnUse" x="14" y="14" width="28" height="28">
<rect id="Bounding box" x="14" y="14" width="28" height="28" fill="#D9D9D9"/>
</mask>
<g mask="url(#mask0_566_19140)">
<path id="order_approve_2" d="M34.1542 35.1458L33.6583 34.65C33.4833 34.475 33.2743 34.3875 33.0313 34.3875C32.7882 34.3875 32.5792 34.475 32.4042 34.65C32.2292 34.825 32.1417 35.0292 32.1417 35.2625C32.1417 35.4958 32.2292 35.7 32.4042 35.875L33.5417 37.0125C33.7167 37.1875 33.9208 37.275 34.1542 37.275C34.3875 37.275 34.5917 37.1875 34.7667 37.0125L37.5958 34.2417C37.7708 34.0667 37.8583 33.8576 37.8583 33.6146C37.8583 33.3715 37.7708 33.1625 37.5958 32.9875C37.4208 32.8125 37.2118 32.725 36.9688 32.725C36.7257 32.725 36.5167 32.8125 36.3417 32.9875L34.1542 35.1458ZM22.1667 24.5H33.8333C34.1639 24.5 34.441 24.3882 34.6646 24.1646C34.8882 23.941 35 23.6639 35 23.3333C35 23.0028 34.8882 22.7257 34.6646 22.5021C34.441 22.2785 34.1639 22.1667 33.8333 22.1667H22.1667C21.8361 22.1667 21.559 22.2785 21.3354 22.5021C21.1118 22.7257 21 23.0028 21 23.3333C21 23.6639 21.1118 23.941 21.3354 24.1646C21.559 24.3882 21.8361 24.5 22.1667 24.5ZM35 40.8333C33.3861 40.8333 32.0104 40.2646 30.8729 39.1271C29.7354 37.9896 29.1667 36.6139 29.1667 35C29.1667 33.3861 29.7354 32.0104 30.8729 30.8729C32.0104 29.7354 33.3861 29.1667 35 29.1667C36.6139 29.1667 37.9896 29.7354 39.1271 30.8729C40.2646 32.0104 40.8333 33.3861 40.8333 35C40.8333 36.6139 40.2646 37.9896 39.1271 39.1271C37.9896 40.2646 36.6139 40.8333 35 40.8333ZM17.5 39.5208V19.8333C17.5 19.1917 17.7285 18.6424 18.1854 18.1854C18.6424 17.7285 19.1917 17.5 19.8333 17.5H36.1667C36.8083 17.5 37.3576 17.7285 37.8146 18.1854C38.2715 18.6424 38.5 19.1917 38.5 19.8333V27.6208C38.1306 27.4458 37.7514 27.3 37.3625 27.1833C36.9736 27.0667 36.575 26.9792 36.1667 26.9208V19.8333H19.8333V36.225H26.9208C27.0181 36.8278 27.1688 37.4014 27.3729 37.9458C27.5771 38.4903 27.8444 39.0056 28.175 39.4917C28.0778 39.5111 27.9757 39.4965 27.8688 39.4479C27.7618 39.3993 27.6694 39.3361 27.5917 39.2583L26.6583 38.325C26.5417 38.2083 26.4056 38.15 26.25 38.15C26.0944 38.15 25.9583 38.2083 25.8417 38.325L24.9083 39.2583C24.7917 39.375 24.6556 39.4333 24.5 39.4333C24.3444 39.4333 24.2083 39.375 24.0917 39.2583L23.1583 38.325C23.0417 38.2083 22.9056 38.15 22.75 38.15C22.5944 38.15 22.4583 38.2083 22.3417 38.325L21.4083 39.2583C21.2917 39.375 21.1556 39.4333 21 39.4333C20.8444 39.4333 20.7083 39.375 20.5917 39.2583L19.6583 38.325C19.5417 38.2083 19.4056 38.15 19.25 38.15C19.0944 38.15 18.9583 38.2083 18.8417 38.325L17.9083 39.2583L17.5 39.5208ZM22.1667 33.8333H26.9208C26.9792 33.425 27.0667 33.0264 27.1833 32.6375C27.3 32.2486 27.4458 31.8694 27.6208 31.5H22.1667C21.8361 31.5 21.559 31.6118 21.3354 31.8354C21.1118 32.059 21 32.3361 21 32.6667C21 32.9972 21.1118 33.2743 21.3354 33.4979C21.559 33.7215 21.8361 33.8333 22.1667 33.8333ZM22.1667 29.1667H29.2833C30.0222 28.4472 30.8826 27.8785 31.8646 27.4604C32.8465 27.0424 33.8917 26.8333 35 26.8333H22.1667C21.8361 26.8333 21.559 26.9451 21.3354 27.1688C21.1118 27.3924 21 27.6694 21 28C21 28.3306 21.1118 28.6076 21.3354 28.8313C21.559 29.0549 21.8361 29.1667 22.1667 29.1667Z" fill="#73AE6E"/>
</g>
</g>
</g>
</svg>
