<svg width="56" height="56" viewBox="0 0 56 56" fill="none" xmlns="http://www.w3.org/2000/svg">
<g id="Group 10">
<circle id="Ellipse 3" cx="28" cy="28" r="28" fill="#FAF1D6"/>
<g id="deployed_code_history">
<mask id="mask0_566_19179" style="mask-type:alpha" maskUnits="userSpaceOnUse" x="14" y="14" width="28" height="28">
<rect id="Bounding box" x="14" y="14" width="28" height="28" fill="#D9D9D9"/>
</mask>
<g mask="url(#mask0_566_19179)">
<path id="deployed_code_history_2" d="M26.8333 16.6538C27.2028 16.44 27.5917 16.333 28 16.333C28.4083 16.333 28.7972 16.44 29.1667 16.6538L37.3333 21.3497C37.7028 21.5636 37.9896 21.8455 38.1938 22.1955C38.3979 22.5455 38.5 22.9344 38.5 23.3622V28.3205C38.15 28.0677 37.7806 27.849 37.3917 27.6643C37.0028 27.4795 36.5944 27.3191 36.1667 27.183V24.6163L31.9667 27.0372C30.8778 27.3094 29.891 27.7712 29.0062 28.4226C28.1215 29.074 27.3972 29.8663 26.8333 30.7997V28.6705L19.8333 24.6163V32.608L25.725 36.0205C25.8028 36.6427 25.9486 37.2406 26.1625 37.8143C26.3764 38.3879 26.6486 38.9275 26.9792 39.433C26.9403 39.4136 26.916 39.399 26.9062 39.3893C26.8965 39.3795 26.8722 39.365 26.8333 39.3455L18.6667 34.6497C18.2972 34.4358 18.0104 34.1538 17.8063 33.8038C17.6021 33.4538 17.5 33.065 17.5 32.6372V23.3622C17.5 22.9344 17.6021 22.5455 17.8063 22.1955C18.0104 21.8455 18.2972 21.5636 18.6667 21.3497L26.8333 16.6538ZM28 18.6663L21.0875 22.6622L28 26.658L34.9125 22.6622L28 18.6663ZM33.8333 40.833C32.2194 40.833 30.8438 40.2643 29.7063 39.1268C28.5688 37.9893 28 36.6136 28 34.9997C28 33.3858 28.5688 32.0101 29.7063 30.8726C30.8438 29.7351 32.2194 29.1663 33.8333 29.1663C35.4472 29.1663 36.8229 29.7351 37.9604 30.8726C39.0979 32.0101 39.6667 33.3858 39.6667 34.9997C39.6667 36.6136 39.0979 37.9893 37.9604 39.1268C36.8229 40.2643 35.4472 40.833 33.8333 40.833ZM34.4167 34.7663V31.4997H33.25V35.233L35.7583 37.7413L36.575 36.9247L34.4167 34.7663Z" fill="#FFA412"/>
</g>
</g>
</g>
</svg>
