<svg width="56" height="56" viewBox="0 0 56 56" fill="none" xmlns="http://www.w3.org/2000/svg">
<g id="Group 10">
<circle id="Ellipse 3" cx="28" cy="28" r="28" fill="#C8C8C8"/>
<g id="replay">
<mask id="mask0_566_19160" style="mask-type:alpha" maskUnits="userSpaceOnUse" x="14" y="14" width="28" height="28">
<rect id="Bounding box" x="14" y="14" width="28" height="28" fill="#D9D9D9"/>
</mask>
<g mask="url(#mask0_566_19160)">
<path id="replay_2" d="M28 39.665C26.5417 39.665 25.1757 39.3879 23.9021 38.8337C22.6285 38.2796 21.5201 37.5309 20.5771 36.5879C19.634 35.6448 18.8854 34.5365 18.3313 33.2629C17.7771 31.9893 17.5 30.6233 17.5 29.165C17.5 28.8344 17.6118 28.5573 17.8354 28.3337C18.059 28.1101 18.3361 27.9983 18.6667 27.9983C18.9972 27.9983 19.2743 28.1101 19.4979 28.3337C19.7215 28.5573 19.8333 28.8344 19.8333 29.165C19.8333 31.44 20.6257 33.3698 22.2104 34.9546C23.7951 36.5393 25.725 37.3316 28 37.3316C30.275 37.3316 32.2049 36.5393 33.7896 34.9546C35.3743 33.3698 36.1667 31.44 36.1667 29.165C36.1667 26.89 35.3743 24.9601 33.7896 23.3754C32.2049 21.7907 30.275 20.9983 28 20.9983H27.825L28.8167 21.99C29.05 22.2233 29.1618 22.4955 29.1521 22.8066C29.1424 23.1178 29.0306 23.39 28.8167 23.6233C28.5833 23.8566 28.3062 23.9782 27.9854 23.9879C27.6646 23.9976 27.3875 23.8858 27.1542 23.6525L24.15 20.6483C23.9167 20.415 23.8 20.1427 23.8 19.8316C23.8 19.5205 23.9167 19.2483 24.15 19.015L27.1542 16.0108C27.3875 15.7775 27.6646 15.6657 27.9854 15.6754C28.3062 15.6851 28.5833 15.8066 28.8167 16.04C29.0306 16.2733 29.1424 16.5455 29.1521 16.8566C29.1618 17.1677 29.05 17.44 28.8167 17.6733L27.825 18.665H28C29.4583 18.665 30.8243 18.9421 32.0979 19.4962C33.3715 20.0504 34.4799 20.799 35.4229 21.7421C36.366 22.6851 37.1146 23.7934 37.6687 25.0671C38.2229 26.3407 38.5 27.7066 38.5 29.165C38.5 30.6233 38.2229 31.9893 37.6687 33.2629C37.1146 34.5365 36.366 35.6448 35.4229 36.5879C34.4799 37.5309 33.3715 38.2796 32.0979 38.8337C30.8243 39.3879 29.4583 39.665 28 39.665Z" fill="#6A6A6A"/>
</g>
</g>
</g>
</svg>
