<svg width="56" height="56" viewBox="0 0 56 56" fill="none" xmlns="http://www.w3.org/2000/svg">
<g id="Group 10">
<ellipse id="Ellipse 3" cx="28" cy="27.9957" rx="28" ry="27.9957" fill="#DFF6DC"/>
<g id="payments">
<mask id="mask0_684_24713" style="mask-type:alpha" maskUnits="userSpaceOnUse" x="14" y="13" width="28" height="29">
<rect id="Bounding box" x="14" y="13.998" width="28" height="27.9957" fill="#D9D9D9"/>
</mask>
<g mask="url(#mask0_684_24713)">
<path id="payments_2" d="M30.3327 29.1625C29.3605 29.1625 28.5341 28.8222 27.8535 28.1418C27.173 27.4613 26.8327 26.6351 26.8327 25.663C26.8327 24.6909 27.173 23.8647 27.8535 23.1842C28.5341 22.5038 29.3605 22.1635 30.3327 22.1635C31.3049 22.1635 32.1313 22.5038 32.8118 23.1842C33.4924 23.8647 33.8327 24.6909 33.8327 25.663C33.8327 26.6351 33.4924 27.4613 32.8118 28.1418C32.1313 28.8222 31.3049 29.1625 30.3327 29.1625ZM22.166 32.6619C21.5243 32.6619 20.975 32.4335 20.5181 31.9766C20.0612 31.5197 19.8327 30.9705 19.8327 30.329V20.997C19.8327 20.3555 20.0612 19.8063 20.5181 19.3494C20.975 18.8925 21.5243 18.6641 22.166 18.6641H38.4993C39.141 18.6641 39.6903 18.8925 40.1473 19.3494C40.6042 19.8063 40.8327 20.3555 40.8327 20.997V30.329C40.8327 30.9705 40.6042 31.5197 40.1473 31.9766C39.6903 32.4335 39.141 32.6619 38.4993 32.6619H22.166ZM24.4993 30.329H36.166C36.166 29.6874 36.3945 29.1382 36.8514 28.6813C37.3084 28.2244 37.8577 27.996 38.4993 27.996V23.33C37.8577 23.33 37.3084 23.1016 36.8514 22.6447C36.3945 22.1878 36.166 21.6386 36.166 20.997H24.4993C24.4993 21.6386 24.2709 22.1878 23.8139 22.6447C23.357 23.1016 22.8077 23.33 22.166 23.33V27.996C22.8077 27.996 23.357 28.2244 23.8139 28.6813C24.2709 29.1382 24.4993 29.6874 24.4993 30.329ZM37.3327 37.3279H17.4993C16.8577 37.3279 16.3084 37.0995 15.8514 36.6426C15.3945 36.1857 15.166 35.6365 15.166 34.9949V22.1635H17.4993V34.9949H37.3327V37.3279Z" fill="#73AE6E"/>
</g>
</g>
</g>
</svg>
