<svg width="84" height="84" viewBox="0 0 84 84" fill="none" xmlns="http://www.w3.org/2000/svg">
<g id="Group 10">
<circle id="Ellipse 3" cx="42" cy="42" r="42" fill="#F6FFF5"/>
<g id="person">
<g id="person_2">
<mask id="mask0_458_39614" style="mask-type:alpha" maskUnits="userSpaceOnUse" x="21" y="21" width="42" height="42">
<rect id="Bounding box" x="21" y="21" width="42" height="42" fill="#D9D9D9"/>
</mask>
<g mask="url(#mask0_458_39614)">
<path id="person_3" d="M42.0009 42C40.0759 42 38.4279 41.3146 37.0571 39.9437C35.6863 38.5729 35.0009 36.925 35.0009 35C35.0009 33.075 35.6863 31.4271 37.0571 30.0562C38.4279 28.6854 40.0759 28 42.0009 28C43.9259 28 45.5738 28.6854 46.9446 30.0562C48.3154 31.4271 49.0009 33.075 49.0009 35C49.0009 36.925 48.3154 38.5729 46.9446 39.9437C45.5738 41.3146 43.9259 42 42.0009 42ZM52.5009 56H31.5009C30.5384 56 29.7144 55.6573 29.029 54.9718C28.3436 54.2864 28.0009 53.4625 28.0009 52.5V51.1C28.0009 50.1083 28.2561 49.1968 28.7665 48.3656C29.2769 47.5343 29.955 46.9 30.8009 46.4625C32.6092 45.5583 34.4467 44.8802 36.3134 44.4281C38.18 43.976 40.0759 43.75 42.0009 43.75C43.9259 43.75 45.8217 43.976 47.6884 44.4281C49.555 44.8802 51.3925 45.5583 53.2009 46.4625C54.0467 46.9 54.7248 47.5343 55.2352 48.3656C55.7456 49.1968 56.0009 50.1083 56.0009 51.1V52.5C56.0009 53.4625 55.6581 54.2864 54.9727 54.9718C54.2873 55.6573 53.4634 56 52.5009 56ZM31.5009 52.5H52.5009V51.1C52.5009 50.7791 52.4206 50.4875 52.2602 50.225C52.0998 49.9625 51.8884 49.7583 51.6259 49.6125C50.0509 48.825 48.4613 48.2343 46.8571 47.8406C45.2529 47.4468 43.6342 47.25 42.0009 47.25C40.3675 47.25 38.7488 47.4468 37.1446 47.8406C35.5404 48.2343 33.9509 48.825 32.3759 49.6125C32.1134 49.7583 31.9019 49.9625 31.7415 50.225C31.5811 50.4875 31.5009 50.7791 31.5009 51.1V52.5ZM42.0009 38.5C42.9634 38.5 43.7873 38.1573 44.4727 37.4718C45.1581 36.7864 45.5009 35.9625 45.5009 35C45.5009 34.0375 45.1581 33.2135 44.4727 32.5281C43.7873 31.8427 42.9634 31.5 42.0009 31.5C41.0384 31.5 40.2144 31.8427 39.529 32.5281C38.8436 33.2135 38.5009 34.0375 38.5009 35C38.5009 35.9625 38.8436 36.7864 39.529 37.4718C40.2144 38.1573 41.0384 38.5 42.0009 38.5Z" fill="#73AE6E"/>
</g>
</g>
</g>
</g>
</svg>
